<svg width="15" height="13" viewBox="0 0 15 13" fill="none" xmlns="http://www.w3.org/2000/svg">
<path d="M13.9201 8.96719H4.61537L5.08256 8.01562L12.8451 8.00156C13.1076 8.00156 13.3326 7.81406 13.3794 7.55469L14.4544 1.5375C14.4826 1.37969 14.4404 1.21719 14.3372 1.09375C14.2863 1.033 14.2227 0.984065 14.1509 0.950339C14.0792 0.916613 14.0009 0.898903 13.9216 0.898438L4.04662 0.865625L3.96224 0.46875C3.90912 0.215625 3.68099 0.03125 3.42162 0.03125H1.00756C0.861273 0.03125 0.720981 0.0893608 0.617543 0.192799C0.514105 0.296237 0.455994 0.436529 0.455994 0.582813C0.455994 0.729096 0.514105 0.869388 0.617543 0.972826C0.720981 1.07626 0.861273 1.13438 1.00756 1.13438H2.97474L3.34349 2.8875L4.25131 7.28281L3.08256 9.19063C3.02186 9.27254 2.9853 9.36981 2.97702 9.47143C2.96874 9.57305 2.98906 9.67496 3.03568 9.76562C3.12943 9.95156 3.31849 10.0688 3.52787 10.0688H4.50912C4.29993 10.3466 4.18694 10.685 4.18724 11.0328C4.18724 11.9172 4.90599 12.6359 5.79037 12.6359C6.67474 12.6359 7.39349 11.9172 7.39349 11.0328C7.39349 10.6844 7.27787 10.3453 7.07162 10.0688H9.58881C9.37962 10.3466 9.26662 10.685 9.26693 11.0328C9.26693 11.9172 9.98568 12.6359 10.8701 12.6359C11.7544 12.6359 12.4732 11.9172 12.4732 11.0328C12.4732 10.6844 12.3576 10.3453 12.1513 10.0688H13.9216C14.2247 10.0688 14.4732 9.82187 14.4732 9.51719C14.4723 9.37106 14.4136 9.23122 14.31 9.12818C14.2064 9.02514 14.0662 8.96727 13.9201 8.96719V8.96719ZM4.27631 1.95312L13.2732 1.98281L12.3919 6.91719L5.32474 6.92969L4.27631 1.95312ZM5.79037 11.5266C5.51849 11.5266 5.29662 11.3047 5.29662 11.0328C5.29662 10.7609 5.51849 10.5391 5.79037 10.5391C6.06224 10.5391 6.28412 10.7609 6.28412 11.0328C6.28412 11.1638 6.2321 11.2894 6.1395 11.3819C6.04691 11.4745 5.92132 11.5266 5.79037 11.5266V11.5266ZM10.8701 11.5266C10.5982 11.5266 10.3763 11.3047 10.3763 11.0328C10.3763 10.7609 10.5982 10.5391 10.8701 10.5391C11.1419 10.5391 11.3638 10.7609 11.3638 11.0328C11.3638 11.1638 11.3118 11.2894 11.2192 11.3819C11.1266 11.4745 11.001 11.5266 10.8701 11.5266V11.5266Z" fill="#8C8C8C"/>
</svg>
